# xmcd
#
# Track frame offsets:
# 150
# 11950
# 25905
# 36422
# 47637
# 59017
# 70910
# 82237
# 93012
# 102582
#
# Disc length: 1531 seconds
#
# Revision: 0
# Processed by: cddbd v1.5.2PL0 Copyright (c) Steve Scherf et al.
# Submitted via: Audion 3.0.2 (http://www.panic.com/audion/)
#
DISCID=8b05f90a
DTITLE=Swan Silvertones - Swan Silvertones Volume 2
DYEAR=1900
DGENRE=
TTITLE0=A Mother's Cry
TTITLE1=I Want to Rest
TTITLE2=Glory Hallelujah
TTITLE3=Why I love Him So
TTITLE4=Jesus is Alright With Me
TTITLE5=Nobody But You
TTITLE6=My Rock
TTITLE7=What About You
TTITLE8=The Lord is coming
TTITLE9=Come What May
EXTD=
EXTT0=
EXTT1=
EXTT2=
EXTT3=
EXTT4=
EXTT5=
EXTT6=
EXTT7=
EXTT8=
EXTT9=
PLAYORDER=
